#!OML:ASF X:\für Bonn\!DataBase\2005_08_11_Bastian_Final\c3d\Bastian.ASF
:FULLY-SPECIFIED
:DEGREES
46
root 2.0327 24.1917 7.90843 714.473 -1.83754 -4.08076
lowerback 12.37 0.787299 1.41797
upperback 6.05581 1.16778 -1.23531
thorax -0.54027 0.627804 -2.22744
lowerneck -14.1518 -5.03104 -14.5764
upperneck 3.59647 -5.05982 11.874
head 4.05473 -2.13237 5.67918
rclavicle 9.93923e-016 0
rhumerus -55.1321 22.7729 -98.5869
rradius 106.903
rwrist 6.03328
rhand -13.1925 22.3605
rfingers 7.12502
rthumb 12.9076 -7.22032
lclavicle 9.93923e-016 0
lhumerus -46.5979 -11.2264 77.4631
lradius 99.2449
lwrist -154.473
lhand -32.1534 5.65962
lfingers 7.12502
lthumb -5.39687 35.5709
rfemur -16.0652 -1.18713 25.4574
rtibia 61.2143
rfoot 11.0425 -11.5531
rtoes 35.3662
lfemur -18.985 12.6939 -16.8523
ltibia 65.0616
lfoot 16.8472 -17.0605
ltoes -40.2421
47
root 2.01592 24.2031 8.06298 714.259 -1.85818 -4.27774
lowerback 12.9625 0.828402 1.51617
upperback 6.15146 1.23773 -1.24289
thorax -0.752431 0.663134 -2.31113
lowerneck -13.9926 -5.04501 -14.4991
upperneck 3.75073 -5.11781 11.7883
head 4.07899 -2.17001 5.63491
rclavicle -1.23246e-014 0
rhumerus -54.5229 22.3297 -98.8092
rradius 104.946
rwrist 5.90037
rhand -13.0576 22.2984
rfingers 7.12502
rthumb 13.0377 -7.27419
lclavicle -1.23246e-014 0
lhumerus -46.5869 -10.3861 77.3878
lradius 97.0445
lwrist -155.689
lhand -31.5356 5.92256
lfingers 7.12502
lthumb -4.80036 35.8482
rfemur -15.9773 -0.988364 25.7876
rtibia 60.2769
rfoot 10.749 -11.09
rtoes 34.3874
lfemur -18.9965 12.7297 -16.6112
ltibia 64.3114
lfoot 16.7209 -16.3877
ltoes -39.7032
48
root 1.99877 24.1994 8.22092 714.376 -1.80577 -4.30701
lowerback 13.1262 0.874612 1.45542
upperback 6.18464 1.29158 -1.31851
thorax -0.802223 0.689672 -2.36605
lowerneck -13.9079 -5.07022 -14.4243
upperneck 3.97383 -5.19566 11.8294
head 4.14334 -2.2092 5.63002
rclavicle 1.27222e-014 1.11319e-014
rhumerus -53.8299 21.8306 -99.0456
rradius 102.928
rwrist 5.50747
rhand -12.9454 22.1545
rfingers 7.12502
rthumb 13.1458 -7.41112
lclavicle 1.27222e-014 1.11319e-014
lhumerus -46.4905 -9.55599 77.2366
lradius 94.9032
lwrist -156.934
lhand -30.8782 6.14126
lfingers 7.12502
lthumb -4.16556 36.0803
rfemur -16.2318 -0.810839 25.9225
rtibia 59.3085
rfoot 10.4137 -10.9948
rtoes 33.7207
lfemur -19.3781 12.6759 -16.6622
ltibia 63.4973
lfoot 16.6957 -15.8082
ltoes -39.0071
49
root 1.98063 24.1814 8.38083 714.586 -1.72086 -4.15618
lowerback 13.159 0.939645 1.19656
upperback 6.17662 1.34509 -1.43394
thorax -0.829079 0.712773 -2.3483
lowerneck -13.6345 -5.07888 -14.4389
upperneck 3.99437 -5.25811 11.9824
head 4.11999 -2.2412 5.67929
rclavicle 1.86858e-014 1.19271e-014
rhumerus -53.1324 21.2974 -99.257
rradius 100.758
rwrist 5.35441
rhand -13.1612 22.1931
rfingers 7.12502
rthumb 12.9378 -7.38578
lclavicle 1.86858e-014 1.19271e-014
lhumerus -46.3948 -8.71316 77.0733
lradius 92.6297
lwrist -158.277
lhand -30.2064 6.8551
lfingers 7.12502
lthumb -3.5168 36.8058
rfemur -16.5789 -0.704151 25.8405
rtibia 58.3181
rfoot 10.1064 -11.2863
rtoes 33.5868
lfemur -19.8111 12.5691 -16.9502
ltibia 62.602
lfoot 16.7746 -15.2935
ltoes -37.9555
50
root 1.96261 24.1478 8.54014 714.764 -1.61709 -3.9586
lowerback 13.2253 1.01871 0.885322
upperback 6.16024 1.41067 -1.54945
thorax -0.883659 0.740666 -2.30375
lowerneck -13.2084 -5.08008 -14.3015
upperneck 3.81625 -5.31973 11.8561
head 3.9976 -2.28765 5.61423
rclavicle -1.68967e-014 1.19271e-014
rhumerus -52.4076 20.7085 -99.4398
rradius 98.4595
rwrist 5.44438
rhand -13.3105 22.0433
rfingers 7.12502
rthumb 12.7939 -7.54469
lclavicle -1.68967e-014 1.19271e-014
lhumerus -46.2874 -7.87114 76.9247
lradius 90.3486
lwrist -159.564
lhand -29.552 7.55464
lfingers 7.12502
lthumb -2.8848 37.5149
rfemur -16.8712 -0.651738 25.6996
rtibia 57.3059
rfoot 9.72468 -12.1782
rtoes 34.6153
lfemur -20.1635 12.4104 -17.2728
ltibia 61.6327
lfoot 16.9737 -14.8094
ltoes -36.6337
51
root 1.9442 24.1042 8.70179 714.898 -1.50962 -3.81077
lowerback 13.2924 1.08766 0.593782
upperback 6.16681 1.46548 -1.63342
thorax -0.915625 0.76359 -2.23583
lowerneck -12.9508 -5.09458 -13.9763
upperneck 3.82293 -5.39183 11.4119
head 3.94311 -2.34704 5.41344
rclavicle -1.09332e-014 1.35174e-014
rhumerus -51.662 20.1423 -99.5728
rradius 96.1525
rwrist 5.50712
rhand -13.4356 21.9544
rfingers 7.12502
rthumb 12.6733 -7.64113
lclavicle -1.09332e-014 1.35174e-014
lhumerus -46.0905 -6.93691 76.7412
lradius 87.9593
lwrist -160.795
lhand -29.0374 8.17652
lfingers 7.12502
lthumb -2.38785 38.1429
rfemur -17.0694 -0.561873 25.612
rtibia 56.2546
rfoot 9.0521 -13.7599
rtoes 37.1903
lfemur -20.4229 12.2043 -17.5236
ltibia 60.5822
lfoot 17.1446 -14.4288
ltoes -35.5971
52
root 1.92557 24.0491 8.86562 715.055 -1.41178 -3.72225
lowerback 13.3383 1.16031 0.401419
upperback 6.12094 1.53551 -1.74063
thorax -0.987408 0.79573 -2.2506
lowerneck -12.571 -5.10544 -13.7561
upperneck 3.82033 -5.47699 11.2155
head 3.87924 -2.40596 5.31121
rclavicle -2.8625e-014 -4.77083e-015
rhumerus -51.0604 19.4833 -99.7563
rradius 93.7602
rwrist 5.49619
rhand -13.6797 21.9189
rfingers 7.12502
rthumb 12.4379 -7.69103
lclavicle -2.8625e-014 -4.77083e-015
lhumerus -45.8162 -6.0094 76.4766
lradius 85.5413
lwrist -161.996
lhand -28.7315 8.47911
lfingers 7.12502
lthumb -2.0924 38.4486
rfemur -17.2574 -0.515962 25.5876
rtibia 55.1664
rfoot 8.24456 -15.5115
rtoes 39.9863
lfemur -20.6723 11.9816 -17.6998
ltibia 59.477
lfoot 17.1934 -14.3415
ltoes -35.3966
53
root 1.90706 23.9814 9.03233 715.157 -1.33581 -3.6858
lowerback 13.4352 1.22595 0.189349
upperback 6.05194 1.59442 -1.76713
thorax -1.11438 0.820413 -2.1705
lowerneck -12.1323 -5.09808 -13.8621
upperneck 3.82209 -5.51748 11.324
head 3.82091 -2.43562 5.36564
rclavicle -1.92821e-014 1.27222e-014
rhumerus -50.6131 18.9038 -99.8607
rradius 91.447
rwrist 5.42757
rhand -14.0038 21.8806
rfingers 7.12502
rthumb 12.1254 -7.74803
lclavicle -1.92821e-014 1.27222e-014
lhumerus -45.5124 -4.8522 76.2435
lradius 83.0964
lwrist -163.268
lhand -28.572 8.50552
lfingers 7.12502
lthumb -1.93837 38.4765
rfemur -17.3414 -0.510685 25.6045
rtibia 54.0353
rfoot 7.39526 -17.1412
rtoes 42.299
lfemur -20.8022 11.8155 -17.7804
ltibia 58.3064
lfoot 17.1422 -14.4234
ltoes -35.7514
54
root 1.88794 23.904 9.20118 715.226 -1.26471 -3.67742
lowerback 13.5799 1.29729 0.00204324
upperback 5.94526 1.66192 -1.79599
thorax -1.30565 0.849537 -2.11038
lowerneck -11.5993 -5.08546 -14.0792
upperneck 3.81814 -5.56662 11.6719
head 3.7583 -2.46379 5.51614
rclavicle -1.09332e-014 -4.05521e-014
rhumerus -50.1333 18.236 -99.9416
rradius 89.1783
rwrist 5.34537
rhand -14.2098 21.7235
rfingers 7.12502
rthumb 11.9268 -7.91671
lclavicle -1.09332e-014 -4.05521e-014
lhumerus -45.2086 -3.63881 75.9737
lradius 80.6845
lwrist -164.587
lhand -28.5035 8.29394
lfingers 7.12502
lthumb -1.87222 38.2655
rfemur -17.3509 -0.51796 25.6653
rtibia 52.8651
rfoot 6.73369 -18.3196
rtoes 43.2177
lfemur -20.8548 11.6226 -17.8033
ltibia 57.0894
lfoot 17.1465 -14.4221
ltoes -35.834
55
root 1.86978 23.8178 9.37321 715.249 -1.18906 -3.64394
lowerback 13.7181 1.36263 -0.200328
upperback 5.88057 1.71901 -1.84082
thorax -1.44992 0.874284 -2.05647
lowerneck -11.1586 -5.0735 -14.3002
upperneck 3.78493 -5.61059 12.11
head 3.70454 -2.48353 5.69608
rclavicle 1.55052e-014 -1.27222e-014
rhumerus -49.5198 17.5423 -99.9769
rradius 87.0148
rwrist 5.29737
rhand -14.306 21.4481
rfingers 7.12502
rthumb 11.834 -8.19751
lclavicle 1.55052e-014 -1.27222e-014
lhumerus -44.8004 -2.30589 75.635
lradius 78.2634
lwrist -165.908
lhand -28.4785 7.98562
lfingers 7.12502
lthumb -1.84808 37.9574
rfemur -17.2631 -0.579537 25.6901
rtibia 51.6595
rfoot 6.39634 -18.8302
rtoes 43.0803
lfemur -20.7972 11.4182 -17.837
ltibia 55.8169
lfoot 17.1748 -14.3431
ltoes -35.7557
56
root 1.85191 23.7197 9.54769 715.19 -1.12499 -3.6427
lowerback 13.9278 1.43723 -0.382623
upperback 5.83472 1.78938 -1.87093
thorax -1.61236 0.906007 -2.00273
lowerneck -10.7646 -5.06665 -14.4873
upperneck 3.75517 -5.66147 12.5514
head 3.65969 -2.50555 5.87081
rclavicle 1.98785e-016 5.56597e-015
rhumerus -48.9389 16.8046 -99.9342
rradius 84.88
rwrist 5.25901
rhand -14.3837 21.2218
rfingers 7.12502
rthumb 11.7591 -8.42808
lclavicle 1.98785e-016 5.56597e-015
lhumerus -44.3373 -0.982836 75.2708
lradius 75.8469
lwrist -167.162
lhand -28.2772 7.58444
lfingers 7.12502
lthumb -1.65365 37.5578
rfemur -17.0535 -0.663142 25.7475
rtibia 50.4361
rfoot 6.30393 -18.7634
rtoes 42.5378
lfemur -20.6022 11.1999 -17.788
ltibia 54.5364
lfoot 17.1831 -14.2008
ltoes -35.4052
57
root 1.83379 23.6101 9.72488 715.056 -1.0513 -3.58711
lowerback 14.1746 1.5131 -0.627119
upperback 5.82075 1.85183 -1.90893
thorax -1.7633 0.933456 -1.92211
lowerneck -10.3708 -5.06272 -14.6976
upperneck 3.66179 -5.714 13.0553
head 3.59924 -2.52699 6.07007
rclavicle -1.98785e-014 -1.59028e-014
rhumerus -48.4326 16.0725 -99.8684
rradius 82.7982
rwrist 5.09216
rhand -14.3703 20.8803
rfingers 7.12502
rthumb 11.7721 -8.76886
lclavicle -1.98785e-014 -1.59028e-014
lhumerus -43.8292 0.545883 74.8418
lradius 73.3621
lwrist -168.575
lhand -28.0168 7.40794
lfingers 7.12502
lthumb -1.40212 37.3831
rfemur -16.7256 -0.74094 25.7365
rtibia 49.1989
rfoot 6.40688 -18.3294
rtoes 42.2736
lfemur -20.2914 10.9341 -17.7709
ltibia 53.2648
lfoot 17.007 -13.9457
ltoes -35.1522
58
root 1.81637 23.4909 9.90503 715.152 -0.967205 -3.57977
lowerback 14.1366 1.59552 -0.808843
upperback 5.75972 1.93557 -1.9396
thorax -1.80946 0.972867 -1.86449
lowerneck -10.0813 -5.09537 -14.9217
upperneck 3.61828 -5.80767 13.6043
head 3.57926 -2.56487 6.28218
rclavicle 1.19271e-015 6.36111e-015
rhumerus -47.9835 15.3702 -99.7724
rradius 80.7217
rwrist 4.7674
rhand -14.3594 20.4207
rfingers 7.12502
rthumb 11.7825 -9.22789
lclavicle 1.19271e-015 6.36111e-015
lhumerus -43.3029 2.06002 74.4237
lradius 70.7862
lwrist -170.101
lhand -27.6254 7.40124
lfingers 7.12502
lthumb -1.0241 37.3785
rfemur -16.6393 -0.833532 25.7819
rtibia 47.9675
rfoot 6.83507 -17.5996
rtoes 41.966
lfemur -20.2273 10.6158 -17.7297
ltibia 52.0502
lfoot 16.7179 -13.6054
ltoes -35.1518
59
root 1.79996 23.3612 10.0874 715.258 -0.900598 -3.63021
lowerback 14.0524 1.66545 -0.91479
upperback 5.70933 2.01396 -1.97491
thorax -1.81752 1.01088 -1.85184
lowerneck -9.85383 -5.13306 -14.9973
upperneck 3.56959 -5.90914 14.022
head 3.56055 -2.60808 6.42583
rclavicle -2.42517e-014 1.27222e-014
rhumerus -47.641 14.7092 -99.6836
rradius 78.7558
rwrist 4.44334
rhand -14.4982 20.133
rfingers 7.12502
rthumb 11.6487 -9.52323
lclavicle -2.42517e-014 1.27222e-014
lhumerus -42.7858 3.58488 73.909
lradius 68.2536
lwrist -171.581
lhand -27.2478 7.3082
lfingers 7.12502
lthumb -0.659441 37.2869
rfemur -16.539 -0.95851 25.8778
rtibia 46.7493
rfoot 7.36109 -16.7816
rtoes 41.9089
lfemur -20.1651 10.3001 -17.6062
ltibia 50.889
lfoot 16.3144 -13.1857
ltoes -35.6456
60
root 1.78342 23.2192 10.2729 715.437 -0.805694 -3.79135
lowerback 13.8281 1.70996 -0.946711
upperback 5.67063 2.07457 -1.93686
thorax -1.73923 1.04053 -1.79626
lowerneck -9.85289 -5.20928 -14.9413
upperneck 3.67533 -6.03891 14.1457
head 3.61439 -2.66665 6.44615
rclavicle 5.84427e-014 -4.92986e-014
rhumerus -47.326 14.1277 -99.5265
rradius 76.761
rwrist 4.3347
rhand -14.844 19.9295
rfingers 7.12502
rthumb 11.3152 -9.74525
lclavicle 5.84427e-014 -4.92986e-014
lhumerus -42.2921 5.1687 73.4463
lradius 65.7387
lwrist -172.969
lhand -26.766 7.03062
lfingers 7.12502
lthumb -0.194038 37.0103
rfemur -16.5067 -1.11016 26.0962
rtibia 45.5628
rfoot 8.00966 -15.9624
rtoes 41.5952
lfemur -20.1576 9.92539 -17.353
ltibia 49.783
lfoot 15.8624 -12.6545
ltoes -36.4859
